<svg width="91" height="38" viewBox="0 0 91 38" fill="none" xmlns="http://www.w3.org/2000/svg">
<path d="M89.1719 15.5734C88.6541 15.5731 88.1219 15.3844 87.8211 15.2277C81.6858 12.0328 74.7264 10.1437 67.9677 10.1437C67.12 10.1437 66.4937 10.1783 65.7043 10.2573C66.979 12.2838 69.175 15.2312 70.6802 17.0385C71.0709 17.5075 71.1877 17.7903 71.1877 18.2423C71.1877 19.0303 70.3582 19.7927 69.4761 19.7927C68.888 19.7927 68.5362 19.5606 67.9905 18.9202C66.1582 16.7711 63.4076 12.9608 62.103 10.7985C55.6887 11.9333 48.5381 15.7214 44.3124 19.0669C43.83 19.455 43.4939 19.6139 43.0085 19.6139C42.1103 19.6139 41.3303 18.8406 41.3303 17.9575C41.3303 17.4468 41.5187 17.0616 42.1797 16.5117C48.6277 11.1439 58.6445 6.9038 67.1508 6.9038C70.5232 6.9038 73.7763 7.37182 76.9224 8.14095C78.8314 8.60768 81.6643 9.55753 84.076 10.6098C77.7525 6.7876 69.8241 3.29637 64.8113 3.29637C63.5331 3.29637 62.7498 3.72427 62.7498 4.58648C62.7498 5.09302 63.0339 5.7713 63.4538 6.45343C62.451 6.55551 61.1304 6.75935 60.1298 7.02707C59.6069 6.0692 59.2432 5.04648 59.2432 3.94929C59.2432 1.50389 60.8363 0 64.0438 0C71.3097 0 83.5216 6.77251 89.6152 11.7195C90.313 12.286 91 12.989 91 13.8127C91.001 14.6287 90.2944 15.5731 89.1719 15.5734Z" fill="white"/>
<path d="M10.2074 29.9823C10.2074 29.547 10.4709 29.2764 10.8766 29.2764C11.2821 29.2764 11.5347 29.547 11.5347 29.9823V30.718C11.8888 29.9925 12.673 29.2764 13.3782 29.2764C13.8328 29.2764 14.0526 29.5431 14.0526 29.8969C14.0526 30.2423 13.8636 30.501 13.2797 30.6637C12.0679 31.0005 11.5373 31.6781 11.5373 32.9778V36.7413C11.5373 37.1769 11.2821 37.4472 10.8763 37.4472C10.4706 37.4472 10.207 37.1769 10.207 36.7413V29.9823H10.2074Z" fill="white"/>
<path d="M40.0082 29.9823C40.0082 29.547 40.2721 29.2764 40.6775 29.2764C41.083 29.2764 41.3356 29.547 41.3356 29.9823V30.718C41.6893 29.9925 42.4739 29.2764 43.1794 29.2764C43.6343 29.2764 43.8539 29.5431 43.8539 29.8969C43.8539 30.2423 43.6648 30.501 43.0809 30.6637C41.8688 31.0005 41.3385 31.6781 41.3385 32.9778V36.7413C41.3385 37.1769 41.083 37.4472 40.6775 37.4472C40.2721 37.4472 40.0082 37.1769 40.0082 36.7413V29.9823V29.9823Z" fill="white"/>
<path d="M17.8389 29.276C19.1376 29.276 19.9726 29.7976 19.9726 30.266C19.9726 30.5472 19.7642 30.8271 19.4487 30.8271C18.963 30.8271 18.7332 30.4342 17.8389 30.4342C16.3301 30.4342 15.5559 31.7843 15.5559 33.3614C15.5559 35.0701 16.4287 36.2883 17.8389 36.2883C18.8231 36.2883 19.0384 35.8822 19.5007 35.8822C19.8011 35.8822 19.9835 36.0851 19.9835 36.3965C19.9835 36.6976 19.735 36.9422 19.2869 37.1489C18.8953 37.3293 18.3778 37.4465 17.8392 37.4465C15.5784 37.4465 14.2205 35.7493 14.2205 33.3614C14.2202 31.0248 15.5899 29.276 17.8389 29.276Z" fill="white"/>
<path d="M21.9191 33.8721C21.9435 35.1783 22.7903 36.2886 24.2772 36.2886C25.8398 36.2886 26.2096 35.4133 26.7736 35.4133C27.0914 35.4133 27.3132 35.6274 27.3132 35.9628C27.3132 36.6093 25.886 37.4465 24.2903 37.4465C23.0959 37.4465 22.2947 37.0677 21.6973 36.4623C20.9381 35.6925 20.584 34.5555 20.584 33.3617C20.584 31.1792 21.9358 29.276 24.1738 29.276C26.2549 29.276 27.6047 31.1137 27.6047 33.1659C27.6047 33.6314 27.4159 33.8718 26.8686 33.8718H21.9191V33.8721ZM26.2738 32.8809C26.2738 31.7394 25.6241 30.4345 24.1671 30.4345C22.7344 30.4345 21.9679 31.5587 21.9188 32.8809H26.2738Z" fill="white"/>
<path d="M30.3278 36.7406C30.3278 37.1762 30.0697 37.4465 29.6643 37.4465C29.2585 37.4465 28.9979 37.1762 28.9979 36.7406V27.2788C28.9979 26.8432 29.2588 26.5729 29.6643 26.5729C30.0697 26.5729 30.3278 26.8432 30.3278 27.2788V36.7406Z" fill="white"/>
<path d="M35.1656 37.4494C33.0515 37.4494 31.6455 35.7641 31.6455 33.3618C31.6455 30.9591 33.0515 29.2738 35.1656 29.2738C37.2798 29.2738 38.6858 30.9591 38.6858 33.3618C38.6858 35.7641 37.2798 37.4494 35.1656 37.4494ZM35.1656 36.2887C36.4615 36.2887 37.3501 35.1584 37.3501 33.3618C37.3501 31.5645 36.4615 30.4345 35.1656 30.4345C33.8698 30.4345 32.9812 31.5648 32.9812 33.3618C32.9812 35.1584 33.8698 36.2887 35.1656 36.2887Z" fill="white"/>
<path d="M53.0811 29.8276C52.3393 32.3747 51.1224 36.5616 51.0222 36.906C50.9115 37.287 50.6794 37.4469 50.3163 37.4469C49.9526 37.4469 49.7279 37.3121 49.6101 36.906C49.5064 36.549 48.2304 32.1606 47.4963 29.6395C47.3753 29.2234 47.2626 28.7317 47.1779 28.3156C47.1272 28.723 47.0626 29.1987 46.9914 29.6436C46.6116 32.0255 46.0226 35.7391 45.8592 36.7872C45.787 37.2488 45.5526 37.4469 45.1665 37.4469C44.8044 37.4469 44.5733 37.2032 44.5733 36.8167C44.5733 36.6665 44.6028 36.4713 44.6471 36.2161C44.6471 36.2161 45.9809 28.193 46.0874 27.5796C46.2011 26.9244 46.541 26.5732 47.0947 26.5732C47.5862 26.5732 47.9772 26.8625 48.1332 27.4078C48.2301 27.7471 49.3045 31.5157 49.9879 33.8982C50.1134 34.3373 50.2396 34.8551 50.3359 35.3228C50.4274 34.8651 50.5452 34.3694 50.6681 33.9412C51.3503 31.5613 52.4462 27.7484 52.5438 27.4078C52.6998 26.8628 53.0468 26.5732 53.5385 26.5732C54.0582 26.5732 54.4396 26.9122 54.5455 27.5796C54.6434 28.1943 55.9862 36.2161 55.9862 36.2161C56.0302 36.4713 56.0597 36.6665 56.0597 36.8167C56.0597 37.2032 55.8289 37.4469 55.4668 37.4469C55.081 37.4469 54.8457 37.2491 54.7738 36.7872C54.6149 35.7693 54.0547 32.2344 53.6743 29.8497C53.5966 29.3631 53.5254 28.8116 53.466 28.3054C53.3687 28.7467 53.2384 29.2883 53.0811 29.8276Z" fill="white"/>
<path d="M58.3982 26.9337C58.8489 26.9337 59.2093 27.2939 59.2093 27.7442C59.2093 28.1949 58.8489 28.5554 58.3982 28.5554C57.9475 28.5554 57.587 28.1949 57.587 27.7442C57.587 27.2939 57.9475 26.9337 58.3982 26.9337ZM59.0646 29.9823C59.0646 29.547 58.8036 29.2764 58.3982 29.2764C57.9928 29.2764 57.7347 29.547 57.7347 29.9823V36.741C57.7347 37.1766 57.9928 37.4469 58.3982 37.4469C58.8036 37.4469 59.0646 37.1766 59.0646 36.741V29.9823Z" fill="white"/>
<path d="M61.376 27.6393C61.376 27.204 61.6344 26.9337 62.0395 26.9337C62.4446 26.9337 62.7059 27.204 62.7059 27.6393V29.3666H63.2468C63.6824 29.3666 63.9078 29.5797 63.9078 29.9402C63.9078 30.3007 63.6827 30.5164 63.2468 30.5164H62.7059V36.741C62.7059 37.1766 62.445 37.4469 62.0395 37.4469C61.6341 37.4469 61.376 37.1766 61.376 36.741V30.5164H60.8939C60.4586 30.5164 60.2329 30.3007 60.2329 29.9402C60.2329 29.5797 60.4583 29.3666 60.8939 29.3666H61.376V27.6393Z" fill="white"/>
<path d="M65.568 27.6393C65.568 27.204 65.829 26.9337 66.2344 26.9337C66.6398 26.9337 66.8976 27.204 66.8976 27.6393V29.3666H67.4385C67.8741 29.3666 68.0998 29.5797 68.0998 29.9402C68.0998 30.3007 67.8744 30.5164 67.4385 30.5164H66.8976V36.741C66.8976 37.1766 66.6395 37.4469 66.2344 37.4469C65.8287 37.4469 65.568 37.1766 65.568 36.741V30.5164H65.083C64.6477 30.5164 64.422 30.3007 64.422 29.9402C64.422 29.5797 64.6474 29.3666 65.083 29.3666H65.568V27.6393Z" fill="white"/>
<path d="M8.77813 36.2309C8.50047 35.4858 5.90355 28.505 5.49941 27.429C5.29686 26.8884 4.98613 26.5739 4.47349 26.5739C3.94769 26.5739 3.66873 26.8888 3.46426 27.429C3.28096 27.9131 0.453257 35.4874 0.171737 36.2309C0.0478305 36.5583 0 36.7336 0 36.8751C0 37.208 0.28537 37.4475 0.630769 37.4475C0.987402 37.4475 1.19252 37.2626 1.30455 36.9519C1.37196 36.7644 1.73984 35.7343 2.20882 34.4204H6.73784C7.1805 35.6605 7.53618 36.6572 7.64243 36.9519C7.74322 37.2321 7.9278 37.4475 8.28828 37.4475C8.63368 37.4475 8.95822 37.2372 8.95822 36.8918C8.95854 36.739 8.92227 36.618 8.77813 36.2309ZM2.62836 33.2459C3.17953 31.7009 3.78237 30.0115 4.1849 28.8819C4.29726 28.567 4.39645 28.2678 4.47445 28.019C4.55791 28.288 4.66064 28.5952 4.76175 28.8793C5.16493 30.0108 5.76649 31.698 6.31893 33.2459H2.62836Z" fill="white"/>
<path d="M78.9572 36.7406C78.9572 37.1762 78.6962 37.4465 78.2908 37.4465C77.885 37.4465 77.6273 37.1762 77.6273 36.7406V27.2788C77.6273 26.8432 77.8854 26.5729 78.2908 26.5729C78.6962 26.5729 78.9572 26.8432 78.9572 27.2788V36.7406Z" fill="white"/>
<path d="M75.0831 29.276C74.6773 29.276 74.4196 29.5466 74.4196 29.9819V30.5796C73.9287 29.772 73.1311 29.2734 72.1443 29.2734C70.1197 29.2734 68.7279 30.9587 68.7279 33.3614C68.7279 35.7638 70.1197 37.449 72.1443 37.449C73.1311 37.449 73.9287 36.9502 74.4196 36.1429V36.7403C74.4196 37.1759 74.6776 37.4462 75.0831 37.4462C75.4885 37.4462 75.7492 37.1759 75.7492 36.7403V29.9816C75.7492 29.5466 75.4882 29.276 75.0831 29.276ZM72.248 36.2905C70.9521 36.2905 70.0632 35.1584 70.0632 33.3617C70.0632 31.5644 70.9521 30.4326 72.248 30.4326C73.5439 30.4326 74.4324 31.5644 74.4324 33.3617C74.4321 35.1584 73.5439 36.2905 72.248 36.2905Z" fill="white"/>
</svg>
